<?xml version="1.0" encoding="UTF-8"?>
<!DOCTYPE svg PUBLIC "-//W3C//DTD SVG 1.1//EN" "http://www.w3.org/Graphics/SVG/1.1/DTD/svg11.dtd">
<svg xmlns="http://www.w3.org/2000/svg" version="1.1" width="460px" height="174px" style="shape-rendering:geometricPrecision; text-rendering:geometricPrecision; image-rendering:optimizeQuality; fill-rule:evenodd; clip-rule:evenodd" xmlns:xlink="http://www.w3.org/1999/xlink">
<g><path style="opacity:1" fill="#000000" d="M 190.5,11.5 C 191.776,12.3864 191.776,13.3864 190.5,14.5C 142.65,45.8484 103.817,85.8484 74,134.5C 60.7077,122.209 47.7077,109.542 35,96.5C 34.3333,95.8333 34.3333,95.1667 35,94.5C 39.0069,90.1603 43.3402,86.1603 48,82.5C 56.3333,90.8333 64.6667,99.1667 73,107.5C 103.974,65.3485 143.141,33.3485 190.5,11.5 Z"/></g>
<g><path style="opacity:1" fill="#000000" d="M 65.5,31.5 C 77.2242,30.9605 88.5575,32.7938 99.5,37C 101.555,37.6872 103.221,38.8539 104.5,40.5C 103,43.5 101.5,46.5 100,49.5C 99.2753,50.0585 98.4419,50.3918 97.5,50.5C 68.1372,38.8794 43.9705,45.5461 25,70.5C 12.6026,93.3471 13.9359,115.347 29,136.5C 50.638,158.245 75.138,162.078 102.5,148C 122.542,133.045 130.542,113.212 126.5,88.5C 126.833,87.8333 127.167,87.1667 127.5,86.5C 131.429,85.1844 135.429,84.1844 139.5,83.5C 145.465,115.122 135.465,140.288 109.5,159C 73.6991,177.573 42.5325,171.739 16,141.5C -2.19009,113.599 -1.85676,85.9323 17,58.5C 29.8441,43.3324 46.0107,34.3324 65.5,31.5 Z"/></g>
<g><path style="opacity:1" fill="#000000" d="M 306.5,86.5 C 313.156,88.2772 314.489,91.7772 310.5,97C 304,98.5 301.5,96 303,89.5C 303.985,88.1859 305.152,87.1859 306.5,86.5 Z"/></g>
<g><path style="opacity:1" fill="#000000" d="M 390.5,86.5 C 395.863,86.6881 398.03,89.3548 397,94.5C 393.714,98.4851 390.381,98.4851 387,94.5C 386.517,95.448 386.351,96.448 386.5,97.5C 383.167,97.5 379.833,97.5 376.5,97.5C 376.5,106.5 376.5,115.5 376.5,124.5C 373.167,124.5 369.833,124.5 366.5,124.5C 366.5,115.5 366.5,106.5 366.5,97.5C 363.167,97.5 359.833,97.5 356.5,97.5C 356.5,94.5 356.5,91.5 356.5,88.5C 366.926,87.873 377.093,88.5396 387,90.5C 387.69,88.6498 388.856,87.3164 390.5,86.5 Z"/></g>
<g><path style="opacity:1" fill="#000000" d="M 426.5,86.5 C 429.833,86.5 433.167,86.5 436.5,86.5C 436.334,93.175 436.5,99.8417 437,106.5C 438.833,104 440.667,101.5 442.5,99C 446.152,98.5014 449.818,98.3347 453.5,98.5C 453.649,99.552 453.483,100.552 453,101.5C 449.796,104.369 446.963,107.535 444.5,111C 447.377,115.255 450.377,119.422 453.5,123.5C 445.596,126.301 440.096,123.967 437,116.5C 436.503,119.146 436.336,121.813 436.5,124.5C 433.167,124.5 429.833,124.5 426.5,124.5C 426.5,111.833 426.5,99.1667 426.5,86.5 Z"/></g>
<g><path style="opacity:1" fill="#000000" d="M 172.5,87.5 C 192.181,88.0041 199.348,97.6708 194,116.5C 187.131,125.387 178.297,127.887 167.5,124C 156.351,116.911 153.851,107.411 160,95.5C 163.378,91.406 167.545,88.7393 172.5,87.5 Z M 172.5,97.5 C 183.28,97.1174 187.113,102.117 184,112.5C 177.863,118.255 172.53,117.588 168,110.5C 166.721,105.085 168.221,100.751 172.5,97.5 Z"/></g>
<g><path style="opacity:1" fill="#000000" d="M 270.5,88.5 C 276.509,88.3338 282.509,88.5005 288.5,89C 296.24,90.2999 299.073,94.7999 297,102.5C 296.167,104 295,105.167 293.5,106C 299.367,108.97 300.867,113.47 298,119.5C 296.269,121.617 294.102,123.117 291.5,124C 284.508,124.5 277.508,124.666 270.5,124.5C 270.5,112.5 270.5,100.5 270.5,88.5 Z M 280.5,97.5 C 282.833,97.5 285.167,97.5 287.5,97.5C 287.714,99.1439 287.38,100.644 286.5,102C 284.527,102.495 282.527,102.662 280.5,102.5C 280.5,100.833 280.5,99.1667 280.5,97.5 Z M 280.5,110.5 C 283.983,109.916 286.983,110.749 289.5,113C 288.833,114 288.167,115 287.5,116C 285.19,116.497 282.857,116.663 280.5,116.5C 280.5,114.5 280.5,112.5 280.5,110.5 Z"/></g>
<g><path style="opacity:1" fill="#000000" d="M 199.5,98.5 C 203.03,97.9889 206.196,98.6556 209,100.5C 216.719,96.37 222.052,98.37 225,106.5C 225.499,112.491 225.666,118.491 225.5,124.5C 222.167,124.5 218.833,124.5 215.5,124.5C 215.666,119.489 215.499,114.489 215,109.5C 213.857,106.085 212.19,105.751 210,108.5C 209.501,113.823 209.334,119.156 209.5,124.5C 206.167,124.5 202.833,124.5 199.5,124.5C 199.5,115.833 199.5,107.167 199.5,98.5 Z"/></g>
<g><path style="opacity:1" fill="#000000" d="M 236.5,98.5 C 249.67,96.6712 255.67,102.338 254.5,115.5C 252.473,115.338 250.473,115.505 248.5,116C 255.273,120.073 254.606,123.073 246.5,125C 233.493,126.939 227.327,121.439 228,108.5C 229.677,104.122 232.511,100.788 236.5,98.5 Z M 239.5,105.5 C 242.022,105.128 244.022,105.961 245.5,108C 242.833,108.667 240.167,108.667 237.5,108C 238.381,107.292 239.047,106.458 239.5,105.5 Z M 237.5,116.5 C 240.304,115.362 243.304,115.195 246.5,116C 243.65,117.759 240.65,117.926 237.5,116.5 Z"/></g>
<g><path style="opacity:1" fill="#000000" d="M 302.5,98.5 C 305.777,98.2161 308.943,98.5495 312,99.5C 312.5,107.827 312.666,116.16 312.5,124.5C 309.167,124.5 305.833,124.5 302.5,124.5C 302.5,115.833 302.5,107.167 302.5,98.5 Z"/></g>
<g><path style="opacity:1" fill="#000000" d="M 323.5,98.5 C 327.383,98.1091 331.05,98.7758 334.5,100.5C 337.477,98.2965 340.644,97.9632 344,99.5C 344.923,109.574 344.59,119.574 343,129.5C 335.617,137.253 327.117,138.586 317.5,133.5C 317.167,132.833 316.833,132.167 316.5,131.5C 317.406,129.253 318.739,127.253 320.5,125.5C 324.186,128.337 328.186,129.003 332.5,127.5C 333.888,126.409 334.388,125.076 334,123.5C 321.151,126.997 315.151,121.997 316,108.5C 317.213,104.131 319.713,100.797 323.5,98.5 Z M 327.5,106.5 C 333.555,106.052 335.721,108.719 334,114.5C 331.662,117.865 328.995,118.198 326,115.5C 325.068,112.177 325.568,109.177 327.5,106.5 Z"/></g>
<g><path style="opacity:1" fill="#000000" d="M 387.5,98.5 C 390.777,98.2161 393.943,98.5495 397,99.5C 397.5,107.827 397.666,116.16 397.5,124.5C 394.167,124.5 390.833,124.5 387.5,124.5C 387.5,115.833 387.5,107.167 387.5,98.5 Z"/></g>
<g><path style="opacity:1" fill="#000000" d="M 409.5,98.5 C 412.85,98.335 416.183,98.5017 419.5,99C 421.329,99.2735 422.829,100.107 424,101.5C 423.427,103.804 422.26,105.971 420.5,108C 418.244,107.385 415.911,107.052 413.5,107C 409.5,110.333 409.5,113.667 413.5,117C 415.911,116.948 418.244,116.615 420.5,116C 421.956,117.745 423.289,119.578 424.5,121.5C 424.023,122.478 423.357,123.311 422.5,124C 407.426,128.406 400.259,122.906 401,107.5C 402.688,103.315 405.521,100.315 409.5,98.5 Z"/></g>
</svg>
